<?xml version="1.0" encoding="UTF-8" standalone="no"?>
<!DOCTYPE svg PUBLIC "-//W3C//DTD SVG 1.1//EN"
 "http://www.w3.org/Graphics/SVG/1.1/DTD/svg11.dtd">
<!-- Generated by graphviz version 9.0.0 (20230911.1827)
 -->
<!-- Title: DVT_dag Pages: 1 -->
<svg width="524pt" height="249pt"
 viewBox="0.00 0.00 524.42 249.30" xmlns="http://www.w3.org/2000/svg" xmlns:xlink="http://www.w3.org/1999/xlink">
<g id="graph0" class="graph" transform="scale(1 1) rotate(0) translate(4 245.3)">
<title>DVT_dag</title>
<polygon fill="white" stroke="none" points="-4,4 -4,-245.3 520.42,-245.3 520.42,4 -4,4"/>
<!-- p0 -->
<g id="node1" class="node">
<title>p0</title>
<ellipse fill="black" stroke="black" cx="140.92" cy="-221.2" rx="3.6" ry="3.6"/>
<text text-anchor="middle" x="87.44" y="-228" font-family="Times,serif" font-size="14.00">Channel.fromPath</text>
</g>
<!-- p1 -->
<g id="node2" class="node">
<title>p1</title>
<ellipse fill="none" stroke="black" cx="140.92" cy="-147.1" rx="140.92" ry="18"/>
<text text-anchor="middle" x="140.92" y="-142.05" font-family="Times,serif" font-size="14.00">FASTQC_QUALITY_ORIGINAL</text>
</g>
<!-- p0&#45;&gt;p1 -->
<g id="edge1" class="edge">
<title>p0&#45;&gt;p1</title>
<path fill="none" stroke="black" d="M140.92,-217.1C140.92,-210.1 140.92,-192.44 140.92,-176.74"/>
<polygon fill="black" stroke="black" points="144.42,-176.84 140.92,-166.84 137.42,-176.84 144.42,-176.84"/>
<text text-anchor="middle" x="162.29" y="-186.3" font-family="Times,serif" font-size="14.00">read_ch</text>
</g>
<!-- p2 -->
<g id="node3" class="node">
<title>p2</title>
<ellipse fill="black" stroke="black" cx="140.92" cy="-58.6" rx="1.8" ry="1.8"/>
</g>
<!-- p1&#45;&gt;p2 -->
<g id="edge2" class="edge">
<title>p1&#45;&gt;p2</title>
<path fill="none" stroke="black" d="M140.92,-129.01C140.92,-112.23 140.92,-87.04 140.92,-72.07"/>
<polygon fill="black" stroke="black" points="144.42,-72.23 140.92,-62.23 137.42,-72.23 144.42,-72.23"/>
</g>
<!-- p3 -->
<g id="node4" class="node">
<title>p3</title>
<ellipse fill="black" stroke="black" cx="358.92" cy="-221.2" rx="3.6" ry="3.6"/>
<text text-anchor="middle" x="293.44" y="-228" font-family="Times,serif" font-size="14.00">Channel.fromFilePairs</text>
</g>
<!-- p4 -->
<g id="node5" class="node">
<title>p4</title>
<ellipse fill="none" stroke="black" cx="358.92" cy="-147.1" rx="59.54" ry="18"/>
<text text-anchor="middle" x="358.92" y="-142.05" font-family="Times,serif" font-size="14.00">TRIMMING</text>
</g>
<!-- p3&#45;&gt;p4 -->
<g id="edge3" class="edge">
<title>p3&#45;&gt;p4</title>
<path fill="none" stroke="black" d="M358.92,-217.1C358.92,-210.1 358.92,-192.44 358.92,-176.74"/>
<polygon fill="black" stroke="black" points="362.42,-176.84 358.92,-166.84 355.42,-176.84 362.42,-176.84"/>
<text text-anchor="middle" x="384.79" y="-186.3" font-family="Times,serif" font-size="14.00">fastqc_ch</text>
</g>
<!-- p5 -->
<g id="node6" class="node">
<title>p5</title>
<ellipse fill="none" stroke="black" cx="358.92" cy="-58.6" rx="123.52" ry="18"/>
<text text-anchor="middle" x="358.92" y="-53.55" font-family="Times,serif" font-size="14.00">FASTQC_QUALITY_FINAL</text>
</g>
<!-- p4&#45;&gt;p5 -->
<g id="edge4" class="edge">
<title>p4&#45;&gt;p5</title>
<path fill="none" stroke="black" d="M358.92,-129.01C358.92,-117.36 358.92,-101.65 358.92,-88.12"/>
<polygon fill="black" stroke="black" points="362.42,-88.46 358.92,-78.46 355.42,-88.46 362.42,-88.46"/>
<text text-anchor="middle" x="437.67" y="-97.8" font-family="Times,serif" font-size="14.00">TRIMMED_FASTQ_FILES</text>
</g>
<!-- p6 -->
<g id="node7" class="node">
<title>p6</title>
<ellipse fill="black" stroke="black" cx="358.92" cy="-1.8" rx="1.8" ry="1.8"/>
</g>
<!-- p5&#45;&gt;p6 -->
<g id="edge5" class="edge">
<title>p5&#45;&gt;p6</title>
<path fill="none" stroke="black" d="M358.92,-40.26C358.92,-32.18 358.92,-22.74 358.92,-15.35"/>
<polygon fill="black" stroke="black" points="362.42,-15.51 358.92,-5.51 355.42,-15.51 362.42,-15.51"/>
</g>
</g>
</svg>
