<?xml version="1.0" encoding="UTF-8" standalone="no"?>
<!DOCTYPE svg PUBLIC "-//W3C//DTD SVG 1.1//EN"
 "http://www.w3.org/Graphics/SVG/1.1/DTD/svg11.dtd">
<!-- Generated by graphviz version 9.0.0 (20230911.1827)
 -->
<!-- Title: DVT_dag Pages: 1 -->
<svg width="1556pt" height="515pt"
 viewBox="0.00 0.00 1555.60 514.70" xmlns="http://www.w3.org/2000/svg" xmlns:xlink="http://www.w3.org/1999/xlink">
<g id="graph0" class="graph" transform="scale(1 1) rotate(0) translate(4 510.7)">
<title>DVT_dag</title>
<polygon fill="white" stroke="none" points="-4,4 -4,-510.7 1551.6,-510.7 1551.6,4 -4,4"/>
<!-- p0 -->
<g id="node1" class="node">
<title>p0</title>
<ellipse fill="black" stroke="black" cx="539.6" cy="-486.6" rx="3.6" ry="3.6"/>
<text text-anchor="middle" x="474.12" y="-493.4" font-family="Times,serif" font-size="14.00">Channel.fromFilePairs</text>
</g>
<!-- p1 -->
<g id="node2" class="node">
<title>p1</title>
<ellipse fill="none" stroke="black" cx="710.6" cy="-412.5" rx="3.6" ry="3.6"/>
<text text-anchor="middle" x="695" y="-419.3" font-family="Times,serif" font-size="14.00">map</text>
</g>
<!-- p0&#45;&gt;p1 -->
<g id="edge1" class="edge">
<title>p0&#45;&gt;p1</title>
<path fill="none" stroke="black" d="M542.86,-484.22C562.03,-476.14 660.34,-434.69 696.89,-419.28"/>
<polygon fill="black" stroke="black" points="698.05,-422.59 705.91,-415.48 695.33,-416.14 698.05,-422.59"/>
<text text-anchor="middle" x="646.98" y="-451.7" font-family="Times,serif" font-size="14.00">read_ch</text>
</g>
<!-- p5 -->
<g id="node5" class="node">
<title>p5</title>
<ellipse fill="none" stroke="black" cx="75.6" cy="-412.5" rx="64.66" ry="18"/>
<text text-anchor="middle" x="75.6" y="-407.45" font-family="Times,serif" font-size="14.00">TRIMREADS</text>
</g>
<!-- p0&#45;&gt;p5 -->
<g id="edge4" class="edge">
<title>p0&#45;&gt;p5</title>
<path fill="none" stroke="black" d="M536.1,-485.23C507.42,-482.15 308.32,-460.29 148.6,-430.5 143.79,-429.6 138.82,-428.6 133.84,-427.55"/>
<polygon fill="black" stroke="black" points="134.98,-424.22 124.46,-425.5 133.49,-431.06 134.98,-424.22"/>
<text text-anchor="middle" x="382.98" y="-451.7" font-family="Times,serif" font-size="14.00">read_ch</text>
</g>
<!-- p2 -->
<g id="node3" class="node">
<title>p2</title>
<ellipse fill="none" stroke="black" cx="780.6" cy="-324" rx="140.92" ry="18"/>
<text text-anchor="middle" x="780.6" y="-318.95" font-family="Times,serif" font-size="14.00">FASTQC_QUALITY_ORIGINAL</text>
</g>
<!-- p1&#45;&gt;p2 -->
<g id="edge2" class="edge">
<title>p1&#45;&gt;p2</title>
<path fill="none" stroke="black" d="M713.98,-410.39C723.76,-407 752.24,-395.83 766.6,-376.5 771.57,-369.8 774.78,-361.45 776.85,-353.43"/>
<polygon fill="black" stroke="black" points="780.28,-354.13 778.83,-343.63 773.42,-352.74 780.28,-354.13"/>
</g>
<!-- p3 -->
<g id="node4" class="node">
<title>p3</title>
<ellipse fill="black" stroke="black" cx="780.6" cy="-265.4" rx="1.8" ry="1.8"/>
</g>
<!-- p2&#45;&gt;p3 -->
<g id="edge3" class="edge">
<title>p2&#45;&gt;p3</title>
<path fill="none" stroke="black" d="M780.6,-305.71C780.6,-297.11 780.6,-286.89 780.6,-279.03"/>
<polygon fill="black" stroke="black" points="784.1,-279.18 780.6,-269.18 777.1,-279.18 784.1,-279.18"/>
</g>
<!-- p6 -->
<g id="node7" class="node">
<title>p6</title>
<ellipse fill="none" stroke="black" cx="54.6" cy="-324" rx="3.6" ry="3.6"/>
<text text-anchor="middle" x="25.5" y="-330.8" font-family="Times,serif" font-size="14.00">subscribe</text>
</g>
<!-- p5&#45;&gt;p6 -->
<g id="edge6" class="edge">
<title>p5&#45;&gt;p6</title>
<path fill="none" stroke="black" d="M71.45,-394.41C67.5,-378.13 61.62,-353.91 57.95,-338.81"/>
<polygon fill="black" stroke="black" points="61.45,-338.36 55.68,-329.47 54.64,-340.01 61.45,-338.36"/>
</g>
<!-- p11 -->
<g id="node11" class="node">
<title>p11</title>
<ellipse fill="none" stroke="black" cx="158.6" cy="-324" rx="54.93" ry="18"/>
<text text-anchor="middle" x="158.6" y="-318.95" font-family="Times,serif" font-size="14.00">BWAMEM</text>
</g>
<!-- p5&#45;&gt;p11 -->
<g id="edge9" class="edge">
<title>p5&#45;&gt;p11</title>
<path fill="none" stroke="black" d="M91.6,-394.82C103.89,-382.02 121.04,-364.14 134.92,-349.68"/>
<polygon fill="black" stroke="black" points="137.2,-352.36 141.6,-342.72 132.15,-347.51 137.2,-352.36"/>
</g>
<!-- p17 -->
<g id="node18" class="node">
<title>p17</title>
<ellipse fill="none" stroke="black" cx="79.6" cy="-324" rx="3.6" ry="3.6"/>
<text text-anchor="middle" x="64" y="-330.8" font-family="Times,serif" font-size="14.00">map</text>
</g>
<!-- p5&#45;&gt;p17 -->
<g id="edge16" class="edge">
<title>p5&#45;&gt;p17</title>
<path fill="none" stroke="black" d="M76.39,-394.41C77.14,-378.29 78.24,-354.41 78.94,-339.28"/>
<polygon fill="black" stroke="black" points="82.43,-339.66 79.39,-329.51 75.43,-339.34 82.43,-339.66"/>
</g>
<!-- p4 -->
<g id="node6" class="node">
<title>p4</title>
<ellipse fill="black" stroke="black" cx="75.6" cy="-486.6" rx="3.6" ry="3.6"/>
</g>
<!-- p4&#45;&gt;p5 -->
<g id="edge5" class="edge">
<title>p4&#45;&gt;p5</title>
<path fill="none" stroke="black" d="M75.6,-482.5C75.6,-475.5 75.6,-457.84 75.6,-442.14"/>
<polygon fill="black" stroke="black" points="79.1,-442.24 75.6,-432.24 72.1,-442.24 79.1,-442.24"/>
<text text-anchor="middle" x="107.1" y="-451.7" font-family="Times,serif" font-size="14.00">trimadapter</text>
</g>
<!-- p7 -->
<g id="node8" class="node">
<title>p7</title>
<ellipse fill="black" stroke="black" cx="941.6" cy="-486.6" rx="3.6" ry="3.6"/>
</g>
<!-- p8 -->
<g id="node9" class="node">
<title>p8</title>
<ellipse fill="none" stroke="black" cx="941.6" cy="-412.5" rx="47.26" ry="18"/>
<text text-anchor="middle" x="941.6" y="-407.45" font-family="Times,serif" font-size="14.00">bwaIndex</text>
</g>
<!-- p7&#45;&gt;p8 -->
<g id="edge7" class="edge">
<title>p7&#45;&gt;p8</title>
<path fill="none" stroke="black" d="M941.6,-482.5C941.6,-475.5 941.6,-457.84 941.6,-442.14"/>
<polygon fill="black" stroke="black" points="945.1,-442.24 941.6,-432.24 938.1,-442.24 945.1,-442.24"/>
<text text-anchor="middle" x="1244.6" y="-451.7" font-family="Times,serif" font-size="14.00">/Users/jimmlucas/Documents/GitHub/DVT&#45;WGS/data/reference&#45;genome/CBS12357_polished_20170509.fasta</text>
</g>
<!-- p9 -->
<g id="node10" class="node">
<title>p9</title>
<ellipse fill="black" stroke="black" cx="941.6" cy="-324" rx="1.8" ry="1.8"/>
</g>
<!-- p8&#45;&gt;p9 -->
<g id="edge8" class="edge">
<title>p8&#45;&gt;p9</title>
<path fill="none" stroke="black" d="M941.6,-394.41C941.6,-377.63 941.6,-352.44 941.6,-337.47"/>
<polygon fill="black" stroke="black" points="945.1,-337.63 941.6,-327.63 938.1,-337.63 945.1,-337.63"/>
</g>
<!-- p12 -->
<g id="node13" class="node">
<title>p12</title>
<ellipse fill="none" stroke="black" cx="158.6" cy="-265.4" rx="3.6" ry="3.6"/>
<text text-anchor="middle" x="143" y="-272.2" font-family="Times,serif" font-size="14.00">map</text>
</g>
<!-- p11&#45;&gt;p12 -->
<g id="edge11" class="edge">
<title>p11&#45;&gt;p12</title>
<path fill="none" stroke="black" d="M158.6,-305.71C158.6,-297.68 158.6,-288.26 158.6,-280.65"/>
<polygon fill="black" stroke="black" points="162.1,-280.87 158.6,-270.87 155.1,-280.87 162.1,-280.87"/>
</g>
<!-- p10 -->
<g id="node12" class="node">
<title>p10</title>
<ellipse fill="black" stroke="black" cx="161.6" cy="-412.5" rx="3.6" ry="3.6"/>
</g>
<!-- p10&#45;&gt;p11 -->
<g id="edge10" class="edge">
<title>p10&#45;&gt;p11</title>
<path fill="none" stroke="black" d="M161.5,-408.62C161.21,-400.14 160.32,-374.56 159.6,-353.9"/>
<polygon fill="black" stroke="black" points="163.1,-353.86 159.26,-343.98 156.11,-354.1 163.1,-353.86"/>
<text text-anchor="middle" x="463.6" y="-363.2" font-family="Times,serif" font-size="14.00">/Users/jimmlucas/Documents/GitHub/DVT&#45;WGS/data/reference&#45;genome/CBS12357_polished_20170509.fasta</text>
</g>
<!-- p13 -->
<g id="node14" class="node">
<title>p13</title>
<ellipse fill="none" stroke="black" cx="158.6" cy="-191.3" rx="89.23" ry="18"/>
<text text-anchor="middle" x="158.6" y="-186.25" font-family="Times,serif" font-size="14.00">MARKDUPLICATE</text>
</g>
<!-- p12&#45;&gt;p13 -->
<g id="edge12" class="edge">
<title>p12&#45;&gt;p13</title>
<path fill="none" stroke="black" d="M158.6,-261.3C158.6,-254.3 158.6,-236.64 158.6,-220.94"/>
<polygon fill="black" stroke="black" points="162.1,-221.04 158.6,-211.04 155.1,-221.04 162.1,-221.04"/>
<text text-anchor="middle" x="180.35" y="-230.5" font-family="Times,serif" font-size="14.00">bam_ch</text>
</g>
<!-- p14 -->
<g id="node15" class="node">
<title>p14</title>
<ellipse fill="none" stroke="black" cx="158.6" cy="-132.7" rx="3.6" ry="3.6"/>
<text text-anchor="middle" x="143" y="-139.5" font-family="Times,serif" font-size="14.00">map</text>
</g>
<!-- p13&#45;&gt;p14 -->
<g id="edge13" class="edge">
<title>p13&#45;&gt;p14</title>
<path fill="none" stroke="black" d="M158.6,-173.01C158.6,-164.98 158.6,-155.56 158.6,-147.95"/>
<polygon fill="black" stroke="black" points="162.1,-148.17 158.6,-138.17 155.1,-148.17 162.1,-148.17"/>
</g>
<!-- p15 -->
<g id="node16" class="node">
<title>p15</title>
<ellipse fill="none" stroke="black" cx="158.6" cy="-58.6" rx="84.62" ry="18"/>
<text text-anchor="middle" x="158.6" y="-53.55" font-family="Times,serif" font-size="14.00">ADDORREPLACE</text>
</g>
<!-- p14&#45;&gt;p15 -->
<g id="edge14" class="edge">
<title>p14&#45;&gt;p15</title>
<path fill="none" stroke="black" d="M158.6,-128.6C158.6,-121.6 158.6,-103.94 158.6,-88.24"/>
<polygon fill="black" stroke="black" points="162.1,-88.34 158.6,-78.34 155.1,-88.34 162.1,-88.34"/>
<text text-anchor="middle" x="187.85" y="-97.8" font-family="Times,serif" font-size="14.00">replace_ch</text>
</g>
<!-- p16 -->
<g id="node17" class="node">
<title>p16</title>
<ellipse fill="black" stroke="black" cx="158.6" cy="-1.8" rx="1.8" ry="1.8"/>
</g>
<!-- p15&#45;&gt;p16 -->
<g id="edge15" class="edge">
<title>p15&#45;&gt;p16</title>
<path fill="none" stroke="black" d="M158.6,-40.26C158.6,-32.18 158.6,-22.74 158.6,-15.35"/>
<polygon fill="black" stroke="black" points="162.1,-15.51 158.6,-5.51 155.1,-15.51 162.1,-15.51"/>
</g>
<!-- p18 -->
<g id="node19" class="node">
<title>p18</title>
<ellipse fill="black" stroke="black" cx="79.6" cy="-265.4" rx="1.8" ry="1.8"/>
</g>
<!-- p17&#45;&gt;p18 -->
<g id="edge17" class="edge">
<title>p17&#45;&gt;p18</title>
<path fill="none" stroke="black" d="M79.6,-319.96C79.6,-312.3 79.6,-291.89 79.6,-278.6"/>
<polygon fill="black" stroke="black" points="83.1,-278.96 79.6,-268.96 76.1,-278.96 83.1,-278.96"/>
</g>
</g>
</svg>
