<?xml version="1.0" encoding="UTF-8" standalone="no"?>
<!DOCTYPE svg PUBLIC "-//W3C//DTD SVG 1.1//EN"
 "http://www.w3.org/Graphics/SVG/1.1/DTD/svg11.dtd">
<!-- Generated by graphviz version 9.0.0 (20230911.1827)
 -->
<!-- Title: DVT_dag Pages: 1 -->
<svg width="1382pt" height="338pt"
 viewBox="0.00 0.00 1382.42 337.80" xmlns="http://www.w3.org/2000/svg" xmlns:xlink="http://www.w3.org/1999/xlink">
<g id="graph0" class="graph" transform="scale(1 1) rotate(0) translate(4 333.8)">
<title>DVT_dag</title>
<polygon fill="white" stroke="none" points="-4,4 -4,-333.8 1378.42,-333.8 1378.42,4 -4,4"/>
<!-- p0 -->
<g id="node1" class="node">
<title>p0</title>
<ellipse fill="black" stroke="black" cx="202.92" cy="-309.7" rx="3.6" ry="3.6"/>
<text text-anchor="middle" x="137.44" y="-316.5" font-family="Times,serif" font-size="14.00">Channel.fromFilePairs</text>
</g>
<!-- p1 -->
<g id="node2" class="node">
<title>p1</title>
<ellipse fill="none" stroke="black" cx="157.92" cy="-235.6" rx="3.6" ry="3.6"/>
<text text-anchor="middle" x="142.32" y="-242.4" font-family="Times,serif" font-size="14.00">map</text>
</g>
<!-- p0&#45;&gt;p1 -->
<g id="edge1" class="edge">
<title>p0&#45;&gt;p1</title>
<path fill="none" stroke="black" d="M199.74,-307.56C193.3,-305.08 178.69,-298.56 171.17,-288.1 163.22,-277.05 160.03,-261.65 158.76,-250.58"/>
<polygon fill="black" stroke="black" points="162.26,-250.47 158.05,-240.74 155.28,-250.97 162.26,-250.47"/>
<text text-anchor="middle" x="193.29" y="-274.8" font-family="Times,serif" font-size="14.00">read_ch</text>
</g>
<!-- p5 -->
<g id="node5" class="node">
<title>p5</title>
<ellipse fill="none" stroke="black" cx="303.92" cy="-235.6" rx="64.66" ry="18"/>
<text text-anchor="middle" x="303.92" y="-230.55" font-family="Times,serif" font-size="14.00">TRIMREADS</text>
</g>
<!-- p0&#45;&gt;p5 -->
<g id="edge4" class="edge">
<title>p0&#45;&gt;p5</title>
<path fill="none" stroke="black" d="M205.41,-306.92C214.52,-300.42 246.72,-277.43 271.85,-259.49"/>
<polygon fill="black" stroke="black" points="273.74,-262.44 279.85,-253.78 269.67,-256.75 273.74,-262.44"/>
<text text-anchor="middle" x="275.29" y="-274.8" font-family="Times,serif" font-size="14.00">read_ch</text>
</g>
<!-- p2 -->
<g id="node3" class="node">
<title>p2</title>
<ellipse fill="none" stroke="black" cx="140.92" cy="-147.1" rx="140.92" ry="18"/>
<text text-anchor="middle" x="140.92" y="-142.05" font-family="Times,serif" font-size="14.00">FASTQC_QUALITY_ORIGINAL</text>
</g>
<!-- p1&#45;&gt;p2 -->
<g id="edge2" class="edge">
<title>p1&#45;&gt;p2</title>
<path fill="none" stroke="black" d="M157.35,-231.72C155.68,-223.2 150.61,-197.42 146.54,-176.71"/>
<polygon fill="black" stroke="black" points="150.01,-176.19 144.64,-167.06 143.14,-177.54 150.01,-176.19"/>
</g>
<!-- p3 -->
<g id="node4" class="node">
<title>p3</title>
<ellipse fill="black" stroke="black" cx="140.92" cy="-58.6" rx="1.8" ry="1.8"/>
</g>
<!-- p2&#45;&gt;p3 -->
<g id="edge3" class="edge">
<title>p2&#45;&gt;p3</title>
<path fill="none" stroke="black" d="M140.92,-129.01C140.92,-112.23 140.92,-87.04 140.92,-72.07"/>
<polygon fill="black" stroke="black" points="144.42,-72.23 140.92,-62.23 137.42,-72.23 144.42,-72.23"/>
</g>
<!-- p6 -->
<g id="node7" class="node">
<title>p6</title>
<ellipse fill="none" stroke="black" cx="303.92" cy="-147.1" rx="3.6" ry="3.6"/>
<text text-anchor="middle" x="312.32" y="-153.9" font-family="Times,serif" font-size="14.00">map</text>
</g>
<!-- p5&#45;&gt;p6 -->
<g id="edge6" class="edge">
<title>p5&#45;&gt;p6</title>
<path fill="none" stroke="black" d="M303.92,-217.51C303.92,-201.39 303.92,-177.51 303.92,-162.38"/>
<polygon fill="black" stroke="black" points="307.42,-162.61 303.92,-152.61 300.42,-162.61 307.42,-162.61"/>
</g>
<!-- p13 -->
<g id="node13" class="node">
<title>p13</title>
<ellipse fill="none" stroke="black" cx="413.92" cy="-147.1" rx="54.93" ry="18"/>
<text text-anchor="middle" x="413.92" y="-142.05" font-family="Times,serif" font-size="14.00">BWAMEM</text>
</g>
<!-- p5&#45;&gt;p13 -->
<g id="edge11" class="edge">
<title>p5&#45;&gt;p13</title>
<path fill="none" stroke="black" d="M324.87,-218.13C341.72,-204.88 365.6,-186.1 384.39,-171.32"/>
<polygon fill="black" stroke="black" points="386.53,-174.09 392.23,-165.16 382.21,-168.59 386.53,-174.09"/>
</g>
<!-- p4 -->
<g id="node6" class="node">
<title>p4</title>
<ellipse fill="black" stroke="black" cx="303.92" cy="-309.7" rx="3.6" ry="3.6"/>
</g>
<!-- p4&#45;&gt;p5 -->
<g id="edge5" class="edge">
<title>p4&#45;&gt;p5</title>
<path fill="none" stroke="black" d="M303.92,-305.6C303.92,-298.6 303.92,-280.94 303.92,-265.24"/>
<polygon fill="black" stroke="black" points="307.42,-265.34 303.92,-255.34 300.42,-265.34 307.42,-265.34"/>
<text text-anchor="middle" x="335.42" y="-274.8" font-family="Times,serif" font-size="14.00">trimadapter</text>
</g>
<!-- p7 -->
<g id="node8" class="node">
<title>p7</title>
<ellipse fill="none" stroke="black" cx="293.92" cy="-58.6" rx="123.52" ry="18"/>
<text text-anchor="middle" x="293.92" y="-53.55" font-family="Times,serif" font-size="14.00">FASTQC_QUALITY_FINAL</text>
</g>
<!-- p6&#45;&gt;p7 -->
<g id="edge7" class="edge">
<title>p6&#45;&gt;p7</title>
<path fill="none" stroke="black" d="M303.59,-143.22C302.6,-134.74 299.65,-109.16 297.26,-88.5"/>
<polygon fill="black" stroke="black" points="300.74,-88.11 296.11,-78.58 293.78,-88.91 300.74,-88.11"/>
</g>
<!-- p8 -->
<g id="node9" class="node">
<title>p8</title>
<ellipse fill="black" stroke="black" cx="293.92" cy="-1.8" rx="1.8" ry="1.8"/>
</g>
<!-- p7&#45;&gt;p8 -->
<g id="edge8" class="edge">
<title>p7&#45;&gt;p8</title>
<path fill="none" stroke="black" d="M293.92,-40.26C293.92,-32.18 293.92,-22.74 293.92,-15.35"/>
<polygon fill="black" stroke="black" points="297.42,-15.51 293.92,-5.51 290.42,-15.51 297.42,-15.51"/>
</g>
<!-- p9 -->
<g id="node10" class="node">
<title>p9</title>
<ellipse fill="black" stroke="black" cx="901.92" cy="-309.7" rx="3.6" ry="3.6"/>
</g>
<!-- p10 -->
<g id="node11" class="node">
<title>p10</title>
<ellipse fill="none" stroke="black" cx="901.92" cy="-235.6" rx="47.26" ry="18"/>
<text text-anchor="middle" x="901.92" y="-230.55" font-family="Times,serif" font-size="14.00">bwaIndex</text>
</g>
<!-- p9&#45;&gt;p10 -->
<g id="edge9" class="edge">
<title>p9&#45;&gt;p10</title>
<path fill="none" stroke="black" d="M901.92,-305.6C901.92,-298.6 901.92,-280.94 901.92,-265.24"/>
<polygon fill="black" stroke="black" points="905.42,-265.34 901.92,-255.34 898.42,-265.34 905.42,-265.34"/>
<text text-anchor="middle" x="1138.17" y="-274.8" font-family="Times,serif" font-size="14.00">/Users/jimmlucas/tutorial/data/reference&#45;genome/CBS12357_polished_20170509.fasta</text>
</g>
<!-- p11 -->
<g id="node12" class="node">
<title>p11</title>
<ellipse fill="black" stroke="black" cx="901.92" cy="-147.1" rx="1.8" ry="1.8"/>
</g>
<!-- p10&#45;&gt;p11 -->
<g id="edge10" class="edge">
<title>p10&#45;&gt;p11</title>
<path fill="none" stroke="black" d="M901.92,-217.51C901.92,-200.73 901.92,-175.54 901.92,-160.57"/>
<polygon fill="black" stroke="black" points="905.42,-160.73 901.92,-150.73 898.42,-160.73 905.42,-160.73"/>
</g>
<!-- p15 -->
<g id="node15" class="node">
<title>p15</title>
<ellipse fill="none" stroke="black" cx="524.92" cy="-58.6" rx="89.23" ry="18"/>
<text text-anchor="middle" x="524.92" y="-53.55" font-family="Times,serif" font-size="14.00">MARKDUPLICATE</text>
</g>
<!-- p13&#45;&gt;p15 -->
<g id="edge13" class="edge">
<title>p13&#45;&gt;p15</title>
<path fill="none" stroke="black" d="M434.54,-130.03C451.35,-116.93 475.34,-98.24 494.38,-83.4"/>
<polygon fill="black" stroke="black" points="496.34,-86.31 502.08,-77.4 492.04,-80.78 496.34,-86.31"/>
</g>
<!-- p12 -->
<g id="node14" class="node">
<title>p12</title>
<ellipse fill="black" stroke="black" cx="413.92" cy="-235.6" rx="3.6" ry="3.6"/>
</g>
<!-- p12&#45;&gt;p13 -->
<g id="edge12" class="edge">
<title>p12&#45;&gt;p13</title>
<path fill="none" stroke="black" d="M413.92,-231.72C413.92,-223.24 413.92,-197.66 413.92,-177"/>
<polygon fill="black" stroke="black" points="417.42,-177.09 413.92,-167.09 410.42,-177.09 417.42,-177.09"/>
<text text-anchor="middle" x="650.17" y="-186.3" font-family="Times,serif" font-size="14.00">/Users/jimmlucas/tutorial/data/reference&#45;genome/CBS12357_polished_20170509.fasta</text>
</g>
<!-- p16 -->
<g id="node17" class="node">
<title>p16</title>
<ellipse fill="black" stroke="black" cx="524.92" cy="-1.8" rx="1.8" ry="1.8"/>
</g>
<!-- p15&#45;&gt;p16 -->
<g id="edge15" class="edge">
<title>p15&#45;&gt;p16</title>
<path fill="none" stroke="black" d="M524.92,-40.26C524.92,-32.18 524.92,-22.74 524.92,-15.35"/>
<polygon fill="black" stroke="black" points="528.42,-15.51 524.92,-5.51 521.42,-15.51 528.42,-15.51"/>
</g>
<!-- p14 -->
<g id="node16" class="node">
<title>p14</title>
<ellipse fill="black" stroke="black" cx="524.92" cy="-147.1" rx="3.6" ry="3.6"/>
</g>
<!-- p14&#45;&gt;p15 -->
<g id="edge14" class="edge">
<title>p14&#45;&gt;p15</title>
<path fill="none" stroke="black" d="M524.92,-143.22C524.92,-134.74 524.92,-109.16 524.92,-88.5"/>
<polygon fill="black" stroke="black" points="528.42,-88.59 524.92,-78.59 521.42,-88.59 528.42,-88.59"/>
<text text-anchor="middle" x="761.17" y="-97.8" font-family="Times,serif" font-size="14.00">/Users/jimmlucas/tutorial/data/reference&#45;genome/CBS12357_polished_20170509.fasta</text>
</g>
</g>
</svg>
