<?xml version="1.0" encoding="UTF-8" standalone="no"?>
<!DOCTYPE svg PUBLIC "-//W3C//DTD SVG 1.1//EN"
 "http://www.w3.org/Graphics/SVG/1.1/DTD/svg11.dtd">
<!-- Generated by graphviz version 9.0.0 (20230911.1827)
 -->
<!-- Title: DVT_dag Pages: 1 -->
<svg width="1644pt" height="411pt"
 viewBox="0.00 0.00 1643.92 410.80" xmlns="http://www.w3.org/2000/svg" xmlns:xlink="http://www.w3.org/1999/xlink">
<g id="graph0" class="graph" transform="scale(1 1) rotate(0) translate(4 406.8)">
<title>DVT_dag</title>
<polygon fill="white" stroke="none" points="-4,4 -4,-406.8 1639.92,-406.8 1639.92,4 -4,4"/>
<!-- p0 -->
<g id="node1" class="node">
<title>p0</title>
<ellipse fill="black" stroke="black" cx="202.92" cy="-382.7" rx="3.6" ry="3.6"/>
<text text-anchor="middle" x="137.44" y="-389.5" font-family="Times,serif" font-size="14.00">Channel.fromFilePairs</text>
</g>
<!-- p1 -->
<g id="node2" class="node">
<title>p1</title>
<ellipse fill="none" stroke="black" cx="157.92" cy="-308.6" rx="3.6" ry="3.6"/>
<text text-anchor="middle" x="142.32" y="-315.4" font-family="Times,serif" font-size="14.00">map</text>
</g>
<!-- p0&#45;&gt;p1 -->
<g id="edge1" class="edge">
<title>p0&#45;&gt;p1</title>
<path fill="none" stroke="black" d="M199.74,-380.56C193.3,-378.08 178.69,-371.56 171.17,-361.1 163.22,-350.05 160.03,-334.65 158.76,-323.58"/>
<polygon fill="black" stroke="black" points="162.26,-323.47 158.05,-313.74 155.28,-323.97 162.26,-323.47"/>
<text text-anchor="middle" x="193.29" y="-347.8" font-family="Times,serif" font-size="14.00">read_ch</text>
</g>
<!-- p5 -->
<g id="node5" class="node">
<title>p5</title>
<ellipse fill="none" stroke="black" cx="303.92" cy="-308.6" rx="64.66" ry="18"/>
<text text-anchor="middle" x="303.92" y="-303.55" font-family="Times,serif" font-size="14.00">TRIMREADS</text>
</g>
<!-- p0&#45;&gt;p5 -->
<g id="edge4" class="edge">
<title>p0&#45;&gt;p5</title>
<path fill="none" stroke="black" d="M205.41,-379.92C214.52,-373.42 246.72,-350.43 271.85,-332.49"/>
<polygon fill="black" stroke="black" points="273.74,-335.44 279.85,-326.78 269.67,-329.75 273.74,-335.44"/>
<text text-anchor="middle" x="275.29" y="-347.8" font-family="Times,serif" font-size="14.00">read_ch</text>
</g>
<!-- p2 -->
<g id="node3" class="node">
<title>p2</title>
<ellipse fill="none" stroke="black" cx="140.92" cy="-220.1" rx="140.92" ry="18"/>
<text text-anchor="middle" x="140.92" y="-215.05" font-family="Times,serif" font-size="14.00">FASTQC_QUALITY_ORIGINAL</text>
</g>
<!-- p1&#45;&gt;p2 -->
<g id="edge2" class="edge">
<title>p1&#45;&gt;p2</title>
<path fill="none" stroke="black" d="M157.35,-304.72C155.68,-296.2 150.61,-270.42 146.54,-249.71"/>
<polygon fill="black" stroke="black" points="150.01,-249.19 144.64,-240.06 143.14,-250.54 150.01,-249.19"/>
</g>
<!-- p3 -->
<g id="node4" class="node">
<title>p3</title>
<ellipse fill="black" stroke="black" cx="140.92" cy="-147.1" rx="1.8" ry="1.8"/>
</g>
<!-- p2&#45;&gt;p3 -->
<g id="edge3" class="edge">
<title>p2&#45;&gt;p3</title>
<path fill="none" stroke="black" d="M140.92,-201.91C140.92,-188.97 140.92,-171.55 140.92,-160.09"/>
<polygon fill="black" stroke="black" points="144.42,-160.44 140.92,-150.44 137.42,-160.44 144.42,-160.44"/>
</g>
<!-- p6 -->
<g id="node7" class="node">
<title>p6</title>
<ellipse fill="none" stroke="black" cx="303.92" cy="-220.1" rx="3.6" ry="3.6"/>
<text text-anchor="middle" x="312.32" y="-226.9" font-family="Times,serif" font-size="14.00">map</text>
</g>
<!-- p5&#45;&gt;p6 -->
<g id="edge6" class="edge">
<title>p5&#45;&gt;p6</title>
<path fill="none" stroke="black" d="M303.92,-290.51C303.92,-274.39 303.92,-250.51 303.92,-235.38"/>
<polygon fill="black" stroke="black" points="307.42,-235.61 303.92,-225.61 300.42,-235.61 307.42,-235.61"/>
</g>
<!-- p13 -->
<g id="node13" class="node">
<title>p13</title>
<ellipse fill="none" stroke="black" cx="408.92" cy="-220.1" rx="54.93" ry="18"/>
<text text-anchor="middle" x="408.92" y="-215.05" font-family="Times,serif" font-size="14.00">BWAMEM</text>
</g>
<!-- p5&#45;&gt;p13 -->
<g id="edge11" class="edge">
<title>p5&#45;&gt;p13</title>
<path fill="none" stroke="black" d="M323.67,-291.33C339.8,-278.04 362.8,-259.09 380.85,-244.22"/>
<polygon fill="black" stroke="black" points="382.6,-247.32 388.09,-238.26 378.14,-241.92 382.6,-247.32"/>
</g>
<!-- p4 -->
<g id="node6" class="node">
<title>p4</title>
<ellipse fill="black" stroke="black" cx="303.92" cy="-382.7" rx="3.6" ry="3.6"/>
</g>
<!-- p4&#45;&gt;p5 -->
<g id="edge5" class="edge">
<title>p4&#45;&gt;p5</title>
<path fill="none" stroke="black" d="M303.92,-378.6C303.92,-371.6 303.92,-353.94 303.92,-338.24"/>
<polygon fill="black" stroke="black" points="307.42,-338.34 303.92,-328.34 300.42,-338.34 307.42,-338.34"/>
<text text-anchor="middle" x="335.42" y="-347.8" font-family="Times,serif" font-size="14.00">trimadapter</text>
</g>
<!-- p7 -->
<g id="node8" class="node">
<title>p7</title>
<ellipse fill="none" stroke="black" cx="293.92" cy="-147.1" rx="123.52" ry="18"/>
<text text-anchor="middle" x="293.92" y="-142.05" font-family="Times,serif" font-size="14.00">FASTQC_QUALITY_FINAL</text>
</g>
<!-- p6&#45;&gt;p7 -->
<g id="edge7" class="edge">
<title>p6&#45;&gt;p7</title>
<path fill="none" stroke="black" d="M303.49,-216.05C302.52,-209.2 300.1,-191.98 297.93,-176.59"/>
<polygon fill="black" stroke="black" points="301.42,-176.29 296.56,-166.88 294.49,-177.27 301.42,-176.29"/>
</g>
<!-- p8 -->
<g id="node9" class="node">
<title>p8</title>
<ellipse fill="black" stroke="black" cx="293.92" cy="-58.6" rx="1.8" ry="1.8"/>
</g>
<!-- p7&#45;&gt;p8 -->
<g id="edge8" class="edge">
<title>p7&#45;&gt;p8</title>
<path fill="none" stroke="black" d="M293.92,-129.01C293.92,-112.23 293.92,-87.04 293.92,-72.07"/>
<polygon fill="black" stroke="black" points="297.42,-72.23 293.92,-62.23 290.42,-72.23 297.42,-72.23"/>
</g>
<!-- p9 -->
<g id="node10" class="node">
<title>p9</title>
<ellipse fill="black" stroke="black" cx="1029.92" cy="-382.7" rx="3.6" ry="3.6"/>
</g>
<!-- p10 -->
<g id="node11" class="node">
<title>p10</title>
<ellipse fill="none" stroke="black" cx="1029.92" cy="-308.6" rx="47.26" ry="18"/>
<text text-anchor="middle" x="1029.92" y="-303.55" font-family="Times,serif" font-size="14.00">bwaIndex</text>
</g>
<!-- p9&#45;&gt;p10 -->
<g id="edge9" class="edge">
<title>p9&#45;&gt;p10</title>
<path fill="none" stroke="black" d="M1029.92,-378.6C1029.92,-371.6 1029.92,-353.94 1029.92,-338.24"/>
<polygon fill="black" stroke="black" points="1033.42,-338.34 1029.92,-328.34 1026.42,-338.34 1033.42,-338.34"/>
<text text-anchor="middle" x="1332.92" y="-347.8" font-family="Times,serif" font-size="14.00">/Users/jimmlucas/Documents/GitHub/DVT&#45;WGS/data/reference&#45;genome/CBS12357_polished_20170509.fasta</text>
</g>
<!-- p11 -->
<g id="node12" class="node">
<title>p11</title>
<ellipse fill="black" stroke="black" cx="1029.92" cy="-220.1" rx="1.8" ry="1.8"/>
</g>
<!-- p10&#45;&gt;p11 -->
<g id="edge10" class="edge">
<title>p10&#45;&gt;p11</title>
<path fill="none" stroke="black" d="M1029.92,-290.51C1029.92,-273.73 1029.92,-248.54 1029.92,-233.57"/>
<polygon fill="black" stroke="black" points="1033.42,-233.73 1029.92,-223.73 1026.42,-233.73 1033.42,-233.73"/>
</g>
<!-- p14 -->
<g id="node15" class="node">
<title>p14</title>
<ellipse fill="none" stroke="black" cx="438.92" cy="-147.1" rx="3.6" ry="3.6"/>
<text text-anchor="middle" x="447.32" y="-153.9" font-family="Times,serif" font-size="14.00">map</text>
</g>
<!-- p13&#45;&gt;p14 -->
<g id="edge13" class="edge">
<title>p13&#45;&gt;p14</title>
<path fill="none" stroke="black" d="M416.18,-201.91C421.46,-189.41 428.51,-172.72 433.35,-161.27"/>
<polygon fill="black" stroke="black" points="436.53,-162.75 437.2,-152.17 430.08,-160.02 436.53,-162.75"/>
</g>
<!-- p12 -->
<g id="node14" class="node">
<title>p12</title>
<ellipse fill="black" stroke="black" cx="408.92" cy="-308.6" rx="3.6" ry="3.6"/>
</g>
<!-- p12&#45;&gt;p13 -->
<g id="edge12" class="edge">
<title>p12&#45;&gt;p13</title>
<path fill="none" stroke="black" d="M408.92,-304.72C408.92,-296.24 408.92,-270.66 408.92,-250"/>
<polygon fill="black" stroke="black" points="412.42,-250.09 408.92,-240.09 405.42,-250.09 412.42,-250.09"/>
<text text-anchor="middle" x="711.92" y="-259.3" font-family="Times,serif" font-size="14.00">/Users/jimmlucas/Documents/GitHub/DVT&#45;WGS/data/reference&#45;genome/CBS12357_polished_20170509.fasta</text>
</g>
<!-- p15 -->
<g id="node16" class="node">
<title>p15</title>
<ellipse fill="none" stroke="black" cx="438.92" cy="-58.6" rx="89.23" ry="18"/>
<text text-anchor="middle" x="438.92" y="-53.55" font-family="Times,serif" font-size="14.00">MARKDUPLICATE</text>
</g>
<!-- p14&#45;&gt;p15 -->
<g id="edge14" class="edge">
<title>p14&#45;&gt;p15</title>
<path fill="none" stroke="black" d="M438.92,-143.22C438.92,-134.74 438.92,-109.16 438.92,-88.5"/>
<polygon fill="black" stroke="black" points="442.42,-88.59 438.92,-78.59 435.42,-88.59 442.42,-88.59"/>
<text text-anchor="middle" x="460.67" y="-97.8" font-family="Times,serif" font-size="14.00">bam_ch</text>
</g>
<!-- p16 -->
<g id="node17" class="node">
<title>p16</title>
<ellipse fill="black" stroke="black" cx="438.92" cy="-1.8" rx="1.8" ry="1.8"/>
</g>
<!-- p15&#45;&gt;p16 -->
<g id="edge15" class="edge">
<title>p15&#45;&gt;p16</title>
<path fill="none" stroke="black" d="M438.92,-40.26C438.92,-32.18 438.92,-22.74 438.92,-15.35"/>
<polygon fill="black" stroke="black" points="442.42,-15.51 438.92,-5.51 435.42,-15.51 442.42,-15.51"/>
</g>
</g>
</svg>
