<?xml version="1.0" encoding="UTF-8" standalone="no"?>
<!DOCTYPE svg PUBLIC "-//W3C//DTD SVG 1.1//EN"
 "http://www.w3.org/Graphics/SVG/1.1/DTD/svg11.dtd">
<!-- Generated by graphviz version 9.0.0 (20230911.1827)
 -->
<!-- Title: DVT_dag Pages: 1 -->
<svg width="1644pt" height="544pt"
 viewBox="0.00 0.00 1643.92 543.50" xmlns="http://www.w3.org/2000/svg" xmlns:xlink="http://www.w3.org/1999/xlink">
<g id="graph0" class="graph" transform="scale(1 1) rotate(0) translate(4 539.5)">
<title>DVT_dag</title>
<polygon fill="white" stroke="none" points="-4,4 -4,-539.5 1639.92,-539.5 1639.92,4 -4,4"/>
<!-- p0 -->
<g id="node1" class="node">
<title>p0</title>
<ellipse fill="black" stroke="black" cx="202.92" cy="-515.4" rx="3.6" ry="3.6"/>
<text text-anchor="middle" x="137.44" y="-522.2" font-family="Times,serif" font-size="14.00">Channel.fromFilePairs</text>
</g>
<!-- p1 -->
<g id="node2" class="node">
<title>p1</title>
<ellipse fill="none" stroke="black" cx="157.92" cy="-441.3" rx="3.6" ry="3.6"/>
<text text-anchor="middle" x="142.32" y="-448.1" font-family="Times,serif" font-size="14.00">map</text>
</g>
<!-- p0&#45;&gt;p1 -->
<g id="edge1" class="edge">
<title>p0&#45;&gt;p1</title>
<path fill="none" stroke="black" d="M199.74,-513.26C193.3,-510.78 178.69,-504.26 171.17,-493.8 163.22,-482.75 160.03,-467.35 158.76,-456.28"/>
<polygon fill="black" stroke="black" points="162.26,-456.17 158.05,-446.44 155.28,-456.67 162.26,-456.17"/>
<text text-anchor="middle" x="193.29" y="-480.5" font-family="Times,serif" font-size="14.00">read_ch</text>
</g>
<!-- p5 -->
<g id="node5" class="node">
<title>p5</title>
<ellipse fill="none" stroke="black" cx="303.92" cy="-441.3" rx="64.66" ry="18"/>
<text text-anchor="middle" x="303.92" y="-436.25" font-family="Times,serif" font-size="14.00">TRIMREADS</text>
</g>
<!-- p0&#45;&gt;p5 -->
<g id="edge4" class="edge">
<title>p0&#45;&gt;p5</title>
<path fill="none" stroke="black" d="M205.41,-512.62C214.52,-506.12 246.72,-483.13 271.85,-465.19"/>
<polygon fill="black" stroke="black" points="273.74,-468.14 279.85,-459.48 269.67,-462.45 273.74,-468.14"/>
<text text-anchor="middle" x="275.29" y="-480.5" font-family="Times,serif" font-size="14.00">read_ch</text>
</g>
<!-- p2 -->
<g id="node3" class="node">
<title>p2</title>
<ellipse fill="none" stroke="black" cx="140.92" cy="-352.8" rx="140.92" ry="18"/>
<text text-anchor="middle" x="140.92" y="-347.75" font-family="Times,serif" font-size="14.00">FASTQC_QUALITY_ORIGINAL</text>
</g>
<!-- p1&#45;&gt;p2 -->
<g id="edge2" class="edge">
<title>p1&#45;&gt;p2</title>
<path fill="none" stroke="black" d="M157.35,-437.42C155.68,-428.9 150.61,-403.12 146.54,-382.41"/>
<polygon fill="black" stroke="black" points="150.01,-381.89 144.64,-372.76 143.14,-383.24 150.01,-381.89"/>
</g>
<!-- p3 -->
<g id="node4" class="node">
<title>p3</title>
<ellipse fill="black" stroke="black" cx="140.92" cy="-279.8" rx="1.8" ry="1.8"/>
</g>
<!-- p2&#45;&gt;p3 -->
<g id="edge3" class="edge">
<title>p2&#45;&gt;p3</title>
<path fill="none" stroke="black" d="M140.92,-334.61C140.92,-321.67 140.92,-304.25 140.92,-292.79"/>
<polygon fill="black" stroke="black" points="144.42,-293.14 140.92,-283.14 137.42,-293.14 144.42,-293.14"/>
</g>
<!-- p6 -->
<g id="node7" class="node">
<title>p6</title>
<ellipse fill="none" stroke="black" cx="303.92" cy="-352.8" rx="3.6" ry="3.6"/>
<text text-anchor="middle" x="312.32" y="-359.6" font-family="Times,serif" font-size="14.00">map</text>
</g>
<!-- p5&#45;&gt;p6 -->
<g id="edge6" class="edge">
<title>p5&#45;&gt;p6</title>
<path fill="none" stroke="black" d="M303.92,-423.21C303.92,-407.09 303.92,-383.21 303.92,-368.08"/>
<polygon fill="black" stroke="black" points="307.42,-368.31 303.92,-358.31 300.42,-368.31 307.42,-368.31"/>
</g>
<!-- p13 -->
<g id="node13" class="node">
<title>p13</title>
<ellipse fill="none" stroke="black" cx="408.92" cy="-352.8" rx="54.93" ry="18"/>
<text text-anchor="middle" x="408.92" y="-347.75" font-family="Times,serif" font-size="14.00">BWAMEM</text>
</g>
<!-- p5&#45;&gt;p13 -->
<g id="edge11" class="edge">
<title>p5&#45;&gt;p13</title>
<path fill="none" stroke="black" d="M323.67,-424.03C339.8,-410.74 362.8,-391.79 380.85,-376.92"/>
<polygon fill="black" stroke="black" points="382.6,-380.02 388.09,-370.96 378.14,-374.62 382.6,-380.02"/>
</g>
<!-- p4 -->
<g id="node6" class="node">
<title>p4</title>
<ellipse fill="black" stroke="black" cx="303.92" cy="-515.4" rx="3.6" ry="3.6"/>
</g>
<!-- p4&#45;&gt;p5 -->
<g id="edge5" class="edge">
<title>p4&#45;&gt;p5</title>
<path fill="none" stroke="black" d="M303.92,-511.3C303.92,-504.3 303.92,-486.64 303.92,-470.94"/>
<polygon fill="black" stroke="black" points="307.42,-471.04 303.92,-461.04 300.42,-471.04 307.42,-471.04"/>
<text text-anchor="middle" x="335.42" y="-480.5" font-family="Times,serif" font-size="14.00">trimadapter</text>
</g>
<!-- p7 -->
<g id="node8" class="node">
<title>p7</title>
<ellipse fill="none" stroke="black" cx="293.92" cy="-279.8" rx="123.52" ry="18"/>
<text text-anchor="middle" x="293.92" y="-274.75" font-family="Times,serif" font-size="14.00">FASTQC_QUALITY_FINAL</text>
</g>
<!-- p6&#45;&gt;p7 -->
<g id="edge7" class="edge">
<title>p6&#45;&gt;p7</title>
<path fill="none" stroke="black" d="M303.49,-348.75C302.52,-341.9 300.1,-324.68 297.93,-309.29"/>
<polygon fill="black" stroke="black" points="301.42,-308.99 296.56,-299.58 294.49,-309.97 301.42,-308.99"/>
</g>
<!-- p8 -->
<g id="node9" class="node">
<title>p8</title>
<ellipse fill="black" stroke="black" cx="293.92" cy="-191.3" rx="1.8" ry="1.8"/>
</g>
<!-- p7&#45;&gt;p8 -->
<g id="edge8" class="edge">
<title>p7&#45;&gt;p8</title>
<path fill="none" stroke="black" d="M293.92,-261.71C293.92,-244.93 293.92,-219.74 293.92,-204.77"/>
<polygon fill="black" stroke="black" points="297.42,-204.93 293.92,-194.93 290.42,-204.93 297.42,-204.93"/>
</g>
<!-- p9 -->
<g id="node10" class="node">
<title>p9</title>
<ellipse fill="black" stroke="black" cx="1029.92" cy="-515.4" rx="3.6" ry="3.6"/>
</g>
<!-- p10 -->
<g id="node11" class="node">
<title>p10</title>
<ellipse fill="none" stroke="black" cx="1029.92" cy="-441.3" rx="47.26" ry="18"/>
<text text-anchor="middle" x="1029.92" y="-436.25" font-family="Times,serif" font-size="14.00">bwaIndex</text>
</g>
<!-- p9&#45;&gt;p10 -->
<g id="edge9" class="edge">
<title>p9&#45;&gt;p10</title>
<path fill="none" stroke="black" d="M1029.92,-511.3C1029.92,-504.3 1029.92,-486.64 1029.92,-470.94"/>
<polygon fill="black" stroke="black" points="1033.42,-471.04 1029.92,-461.04 1026.42,-471.04 1033.42,-471.04"/>
<text text-anchor="middle" x="1332.92" y="-480.5" font-family="Times,serif" font-size="14.00">/Users/jimmlucas/Documents/GitHub/DVT&#45;WGS/data/reference&#45;genome/CBS12357_polished_20170509.fasta</text>
</g>
<!-- p11 -->
<g id="node12" class="node">
<title>p11</title>
<ellipse fill="black" stroke="black" cx="1029.92" cy="-352.8" rx="1.8" ry="1.8"/>
</g>
<!-- p10&#45;&gt;p11 -->
<g id="edge10" class="edge">
<title>p10&#45;&gt;p11</title>
<path fill="none" stroke="black" d="M1029.92,-423.21C1029.92,-406.43 1029.92,-381.24 1029.92,-366.27"/>
<polygon fill="black" stroke="black" points="1033.42,-366.43 1029.92,-356.43 1026.42,-366.43 1033.42,-366.43"/>
</g>
<!-- p14 -->
<g id="node15" class="node">
<title>p14</title>
<ellipse fill="none" stroke="black" cx="438.92" cy="-279.8" rx="3.6" ry="3.6"/>
<text text-anchor="middle" x="447.32" y="-286.6" font-family="Times,serif" font-size="14.00">map</text>
</g>
<!-- p13&#45;&gt;p14 -->
<g id="edge13" class="edge">
<title>p13&#45;&gt;p14</title>
<path fill="none" stroke="black" d="M416.18,-334.61C421.46,-322.11 428.51,-305.42 433.35,-293.97"/>
<polygon fill="black" stroke="black" points="436.53,-295.45 437.2,-284.87 430.08,-292.72 436.53,-295.45"/>
</g>
<!-- p12 -->
<g id="node14" class="node">
<title>p12</title>
<ellipse fill="black" stroke="black" cx="408.92" cy="-441.3" rx="3.6" ry="3.6"/>
</g>
<!-- p12&#45;&gt;p13 -->
<g id="edge12" class="edge">
<title>p12&#45;&gt;p13</title>
<path fill="none" stroke="black" d="M408.92,-437.42C408.92,-428.94 408.92,-403.36 408.92,-382.7"/>
<polygon fill="black" stroke="black" points="412.42,-382.79 408.92,-372.79 405.42,-382.79 412.42,-382.79"/>
<text text-anchor="middle" x="711.92" y="-392" font-family="Times,serif" font-size="14.00">/Users/jimmlucas/Documents/GitHub/DVT&#45;WGS/data/reference&#45;genome/CBS12357_polished_20170509.fasta</text>
</g>
<!-- p15 -->
<g id="node16" class="node">
<title>p15</title>
<ellipse fill="none" stroke="black" cx="438.92" cy="-191.3" rx="89.23" ry="18"/>
<text text-anchor="middle" x="438.92" y="-186.25" font-family="Times,serif" font-size="14.00">MARKDUPLICATE</text>
</g>
<!-- p14&#45;&gt;p15 -->
<g id="edge14" class="edge">
<title>p14&#45;&gt;p15</title>
<path fill="none" stroke="black" d="M438.92,-275.92C438.92,-267.44 438.92,-241.86 438.92,-221.2"/>
<polygon fill="black" stroke="black" points="442.42,-221.29 438.92,-211.29 435.42,-221.29 442.42,-221.29"/>
<text text-anchor="middle" x="460.67" y="-230.5" font-family="Times,serif" font-size="14.00">bam_ch</text>
</g>
<!-- p16 -->
<g id="node17" class="node">
<title>p16</title>
<ellipse fill="none" stroke="black" cx="438.92" cy="-132.7" rx="3.6" ry="3.6"/>
<text text-anchor="middle" x="423.32" y="-139.5" font-family="Times,serif" font-size="14.00">map</text>
</g>
<!-- p15&#45;&gt;p16 -->
<g id="edge15" class="edge">
<title>p15&#45;&gt;p16</title>
<path fill="none" stroke="black" d="M438.92,-173.01C438.92,-164.98 438.92,-155.56 438.92,-147.95"/>
<polygon fill="black" stroke="black" points="442.42,-148.17 438.92,-138.17 435.42,-148.17 442.42,-148.17"/>
</g>
<!-- p17 -->
<g id="node18" class="node">
<title>p17</title>
<ellipse fill="none" stroke="black" cx="438.92" cy="-58.6" rx="84.62" ry="18"/>
<text text-anchor="middle" x="438.92" y="-53.55" font-family="Times,serif" font-size="14.00">ADDORREPLACE</text>
</g>
<!-- p16&#45;&gt;p17 -->
<g id="edge16" class="edge">
<title>p16&#45;&gt;p17</title>
<path fill="none" stroke="black" d="M438.92,-128.6C438.92,-121.6 438.92,-103.94 438.92,-88.24"/>
<polygon fill="black" stroke="black" points="442.42,-88.34 438.92,-78.34 435.42,-88.34 442.42,-88.34"/>
<text text-anchor="middle" x="468.17" y="-97.8" font-family="Times,serif" font-size="14.00">replace_ch</text>
</g>
<!-- p18 -->
<g id="node19" class="node">
<title>p18</title>
<ellipse fill="black" stroke="black" cx="438.92" cy="-1.8" rx="1.8" ry="1.8"/>
</g>
<!-- p17&#45;&gt;p18 -->
<g id="edge17" class="edge">
<title>p17&#45;&gt;p18</title>
<path fill="none" stroke="black" d="M438.92,-40.26C438.92,-32.18 438.92,-22.74 438.92,-15.35"/>
<polygon fill="black" stroke="black" points="442.42,-15.51 438.92,-5.51 435.42,-15.51 442.42,-15.51"/>
</g>
</g>
</svg>
